<svg width="20" height="20" viewBox="0 0 20 20" fill="none" xmlns="http://www.w3.org/2000/svg">
<path fill-rule="evenodd" clip-rule="evenodd" d="M14.0983 2.19246C14.0983 2.20667 14.0808 2.21829 14.0595 2.21829C14.0382 2.21829 14.0208 2.22992 14.0208 2.24413C14.0208 2.25833 14.0018 2.26996 13.9786 2.26996C13.9554 2.26996 13.9176 2.29148 13.8946 2.3178C13.8716 2.34413 13.8151 2.3851 13.7689 2.40889C13.7227 2.43266 13.6849 2.46345 13.6849 2.4773C13.6849 2.49114 13.6642 2.50246 13.639 2.50246C13.6137 2.50246 13.5762 2.52571 13.5558 2.55413C13.5353 2.58254 13.4978 2.60579 13.4725 2.60579C13.4473 2.60579 13.4266 2.61742 13.4266 2.63163C13.4266 2.64583 13.4091 2.65746 13.3878 2.65746C13.3665 2.65746 13.3491 2.66831 13.3491 2.68156C13.3491 2.69481 13.3272 2.71259 13.3005 2.72106C13.2576 2.73468 13.2187 2.76214 13.0983 2.86364C13.0811 2.87813 13.055 2.88996 13.0402 2.88996C13.0254 2.88996 13.0133 2.90158 13.0133 2.91579C13.0133 2.93 12.9926 2.94163 12.9673 2.94163C12.942 2.94163 12.9046 2.96488 12.8841 2.99329C12.8636 3.02171 12.836 3.04496 12.8227 3.04496C12.8094 3.04496 12.7604 3.07402 12.7139 3.10954C12.6673 3.14506 12.6194 3.17413 12.6073 3.17413C12.5953 3.17413 12.5687 3.19738 12.5483 3.22579C12.5278 3.25421 12.4903 3.27746 12.465 3.27746C12.4398 3.27746 12.4191 3.28908 12.4191 3.30329C12.4191 3.3175 12.4016 3.32913 12.3803 3.32913C12.359 3.32913 12.3416 3.34075 12.3416 3.35496C12.3416 3.36917 12.3271 3.38082 12.3093 3.38082C12.2813 3.38084 12.2346 3.41389 12.0908 3.53528C12.0736 3.54977 12.0475 3.56163 12.0327 3.56163C12.0179 3.56163 12.0058 3.57325 12.0058 3.58746C12.0058 3.60167 11.9883 3.61329 11.967 3.61329C11.9457 3.61329 11.9283 3.62492 11.9283 3.63913C11.9283 3.65333 11.9108 3.66496 11.8895 3.66496C11.8682 3.66496 11.8508 3.67658 11.8508 3.69079C11.8508 3.705 11.8275 3.71663 11.7991 3.71663C11.7707 3.71663 11.7472 3.72533 11.7469 3.736C11.7465 3.74667 11.6943 3.79025 11.6307 3.83288C11.567 3.8755 11.515 3.91908 11.515 3.92975C11.5149 3.94042 11.4942 3.94913 11.469 3.94913C11.4437 3.94913 11.4062 3.97238 11.3858 4.00079C11.3653 4.02921 11.3278 4.05246 11.3025 4.05246C11.2773 4.05246 11.2566 4.06408 11.2566 4.07829C11.2566 4.0925 11.2445 4.10413 11.2297 4.10413C11.2149 4.10413 11.1887 4.11598 11.1715 4.13048C11.0277 4.25187 10.981 4.28491 10.953 4.28493C10.9353 4.28493 10.9208 4.29658 10.9208 4.31079C10.9208 4.325 10.9033 4.33663 10.882 4.33663C10.8607 4.33663 10.8433 4.34825 10.8433 4.36246C10.8433 4.37667 10.8243 4.38829 10.8011 4.38829C10.7779 4.38829 10.7401 4.40958 10.7171 4.43559C10.6941 4.46161 10.6172 4.51627 10.5462 4.55709C10.4751 4.59788 10.3982 4.65215 10.3752 4.6777C10.3522 4.70323 10.3145 4.72413 10.2913 4.72413C10.2681 4.72413 10.2491 4.73575 10.2491 4.74996C10.2491 4.76417 10.2316 4.77579 10.2103 4.77579C10.189 4.77579 10.1716 4.78556 10.1716 4.79747C10.1716 4.82896 10.0507 4.87913 9.97492 4.87913C9.89786 4.87913 9.8131 4.83769 9.75523 4.77174C9.73224 4.74554 9.69447 4.72413 9.67127 4.72413C9.64807 4.72413 9.62908 4.7125 9.62908 4.69829C9.62908 4.68408 9.61165 4.67246 9.59033 4.67246C9.56902 4.67246 9.55158 4.66083 9.55158 4.64663C9.55158 4.63242 9.53707 4.62077 9.51929 4.62077C9.50155 4.62074 9.45365 4.59204 9.41286 4.55698C9.37209 4.5219 9.30526 4.4784 9.26432 4.46029C9.2234 4.44218 9.18992 4.41857 9.18992 4.40782C9.18992 4.39708 9.17248 4.38829 9.15117 4.38829C9.12986 4.38829 9.11242 4.37667 9.11242 4.36246C9.11242 4.34825 9.09343 4.33663 9.07023 4.33663C9.04703 4.33663 9.00927 4.31547 8.98627 4.28958C8.96331 4.2637 8.90671 4.22051 8.86054 4.19359C8.81435 4.16667 8.77658 4.13554 8.77658 4.12438C8.77658 4.11325 8.75589 4.10413 8.73063 4.10413C8.70534 4.10413 8.6679 4.08088 8.64742 4.05246C8.62693 4.02404 8.5895 4.00079 8.56421 4.00079C8.53894 4.00079 8.51825 3.98917 8.51825 3.97496C8.51825 3.96075 8.50614 3.94913 8.49133 3.94913C8.47653 3.94913 8.45036 3.93729 8.43321 3.9228C8.31283 3.8213 8.27389 3.79384 8.23101 3.78023C8.2043 3.77175 8.18242 3.75398 8.18242 3.74073C8.18242 3.72748 8.16498 3.71663 8.14367 3.71663C8.12236 3.71663 8.10492 3.705 8.10492 3.69079C8.10492 3.67658 8.08423 3.66496 8.05896 3.66496C8.03367 3.66496 7.99624 3.64171 7.97575 3.61329C7.95527 3.58488 7.9292 3.56163 7.91783 3.56163C7.88707 3.56163 7.685 3.42716 7.6369 3.3747C7.6139 3.34964 7.57614 3.32913 7.55294 3.32913C7.52974 3.32913 7.51075 3.3175 7.51075 3.30329C7.51075 3.28908 7.49331 3.27746 7.472 3.27746C7.45069 3.27746 7.43325 3.26583 7.43325 3.25163C7.43325 3.23742 7.41801 3.22579 7.39938 3.22579C7.38073 3.22579 7.34296 3.20487 7.31543 3.17929C7.28786 3.15372 7.22757 3.11052 7.18138 3.0833C7.13519 3.05609 7.09742 3.02471 7.09742 3.01355C7.09742 3.00241 7.07673 2.99329 7.05146 2.99329C7.02617 2.99329 6.98874 2.97004 6.96825 2.94163C6.94777 2.91321 6.91033 2.88996 6.88504 2.88996C6.85978 2.88996 6.83909 2.88097 6.83909 2.86999C6.83909 2.85901 6.7984 2.82814 6.74867 2.80135C6.69894 2.77456 6.65825 2.74286 6.65825 2.7309C6.65825 2.71892 6.63756 2.70913 6.61229 2.70913C6.587 2.70913 6.54957 2.68588 6.52909 2.65746C6.5086 2.62904 6.47117 2.60579 6.44588 2.60579C6.42061 2.60579 6.39992 2.59417 6.39992 2.57996C6.39992 2.56575 6.3878 2.55413 6.373 2.55413C6.3582 2.55413 6.33203 2.54229 6.31488 2.5278C6.19449 2.4263 6.15556 2.39884 6.11268 2.38523C6.08597 2.37675 6.06409 2.35898 6.06409 2.34573C6.06409 2.33248 6.04665 2.32163 6.02534 2.32163C6.00402 2.32163 5.98659 2.31 5.98659 2.29579C5.98659 2.28158 5.96334 2.26996 5.93492 2.26996C5.9065 2.26996 5.88325 2.25833 5.88325 2.24413C5.88325 2.22992 5.86 2.21829 5.83159 2.21829C5.78018 2.21829 5.77992 2.23552 5.77992 5.6526C5.77992 7.91428 5.78873 9.09236 5.80575 9.10288C5.81996 9.11166 5.83159 9.14225 5.83159 9.17082C5.83159 9.2277 5.88821 9.29663 5.93492 9.29663C5.95117 9.29663 5.97912 9.31117 5.99707 9.32892C6.01503 9.34669 6.06217 9.38446 6.10183 9.41288C6.14148 9.44129 6.201 9.49069 6.23407 9.52267C6.26716 9.55462 6.30382 9.58079 6.31555 9.58079C6.32725 9.58079 6.3536 9.60404 6.37409 9.63246C6.39457 9.66088 6.42392 9.68413 6.43931 9.68413C6.45471 9.68413 6.5132 9.72474 6.56926 9.77439C6.7141 9.90268 6.73172 9.91663 6.74875 9.91663C6.75709 9.91663 6.793 9.94569 6.82852 9.98121C6.86404 10.0167 6.90336 10.0458 6.91591 10.0458C6.92847 10.0458 6.95409 10.0608 6.97288 10.0791C7.02304 10.1282 7.13167 10.2008 7.15485 10.2008C7.16588 10.2008 7.17492 8.95692 7.17492 7.43663C7.17492 4.68969 7.17523 4.67246 7.22659 4.67246C7.255 4.67246 7.27825 4.68408 7.27825 4.69829C7.27825 4.7125 7.29569 4.72413 7.317 4.72413C7.33831 4.72413 7.35575 4.73575 7.35575 4.74996C7.35575 4.76417 7.37319 4.77579 7.3945 4.77579C7.41581 4.77579 7.43325 4.78742 7.43325 4.80163C7.43325 4.81583 7.45069 4.82746 7.472 4.82746C7.49331 4.82746 7.51075 4.83831 7.51075 4.85156C7.51075 4.86481 7.53263 4.88259 7.55934 4.89106C7.60223 4.90468 7.64116 4.93214 7.76154 5.03363C7.7787 5.04813 7.80486 5.05996 7.81967 5.05996C7.83447 5.05996 7.84658 5.07158 7.84658 5.08579C7.84658 5.1 7.86728 5.11163 7.89254 5.11163C7.91783 5.11163 7.95527 5.13488 7.97575 5.16329C7.99624 5.19171 8.03367 5.21496 8.05896 5.21496C8.08423 5.21496 8.10492 5.22475 8.10492 5.23674C8.10492 5.2487 8.14561 5.2804 8.19533 5.30718C8.24506 5.33397 8.28575 5.36484 8.28575 5.37582C8.28575 5.3868 8.30319 5.39579 8.3245 5.39579C8.34581 5.39579 8.36325 5.40742 8.36325 5.42163C8.36325 5.43583 8.38069 5.44746 8.402 5.44746C8.42331 5.44746 8.44075 5.45908 8.44075 5.47329C8.44075 5.4875 8.45819 5.49913 8.4795 5.49913C8.50081 5.49913 8.51825 5.51075 8.51825 5.52496C8.51825 5.53917 8.53724 5.55079 8.56044 5.55079C8.58364 5.55079 8.6214 5.57195 8.6444 5.59784C8.66736 5.62372 8.72394 5.66691 8.77013 5.69383C8.81632 5.72075 8.85408 5.75188 8.85408 5.76304C8.85408 5.77417 8.87478 5.78329 8.90004 5.78329C8.92533 5.78329 8.96277 5.80654 8.98325 5.83496C9.00374 5.86338 9.04117 5.88663 9.06646 5.88663C9.09173 5.88663 9.11242 5.89825 9.11242 5.91246C9.11242 5.92667 9.12707 5.93829 9.14497 5.93829C9.16287 5.93829 9.20888 5.96736 9.24719 6.00288C9.28548 6.0384 9.3305 6.06746 9.34722 6.06746C9.36393 6.06746 9.3964 6.08789 9.4194 6.11285C9.44236 6.1378 9.49604 6.17557 9.53867 6.19676C9.58129 6.21796 9.62198 6.24116 9.62908 6.24832C9.63619 6.2555 9.69431 6.29619 9.75825 6.33879C9.82219 6.38136 9.87838 6.42492 9.8831 6.43558C9.89615 6.46493 10.1458 6.45878 10.1458 6.42913C10.1458 6.41492 10.1632 6.40329 10.1845 6.40329C10.2058 6.40329 10.2233 6.3935 10.2233 6.38152C10.2233 6.36955 10.2639 6.33786 10.3137 6.31107C10.3634 6.28428 10.4041 6.25341 10.4041 6.24243C10.4041 6.23145 10.4248 6.22246 10.45 6.22246C10.4753 6.22246 10.5128 6.19921 10.5333 6.17079C10.5537 6.14238 10.5912 6.11913 10.6165 6.11913C10.6417 6.11913 10.6624 6.1075 10.6624 6.09329C10.6624 6.07908 10.6745 6.06746 10.6893 6.06746C10.7041 6.06746 10.7303 6.05563 10.7475 6.04113C10.8692 5.93852 10.9075 5.91194 10.9561 5.89662C10.9864 5.88706 11.03 5.85764 11.0529 5.83126C11.0759 5.80489 11.1137 5.78329 11.1369 5.78329C11.1601 5.78329 11.1791 5.77299 11.1791 5.7604C11.1791 5.74782 11.2198 5.71819 11.2695 5.69461C11.3192 5.67102 11.3599 5.64204 11.3599 5.6302C11.3599 5.6184 11.3948 5.59427 11.4374 5.57663C11.48 5.55898 11.5149 5.53431 11.5149 5.52183C11.5149 5.50933 11.5382 5.49913 11.5666 5.49913C11.595 5.49913 11.6183 5.4875 11.6183 5.47329C11.6183 5.45908 11.6357 5.44746 11.657 5.44746C11.6783 5.44746 11.6958 5.43726 11.6958 5.42475C11.6958 5.41227 11.7306 5.3876 11.7733 5.36996C11.8159 5.35232 11.8508 5.33028 11.8508 5.32103C11.8508 5.31178 11.8914 5.28231 11.9412 5.25552C11.9909 5.22873 12.0316 5.19703 12.0316 5.18507C12.0316 5.17308 12.0523 5.16329 12.0775 5.16329C12.1028 5.16329 12.1403 5.14004 12.1608 5.11163C12.1812 5.08321 12.2187 5.05996 12.244 5.05996C12.2692 5.05996 12.2899 5.05017 12.2899 5.03818C12.2899 5.02622 12.3306 4.99452 12.3803 4.96773C12.4301 4.94094 12.4708 4.91007 12.4708 4.8991C12.4708 4.88812 12.486 4.87913 12.5046 4.87913C12.5233 4.87913 12.5635 4.85588 12.594 4.82746C12.6245 4.79904 12.6673 4.77579 12.6892 4.77579C12.7112 4.77579 12.7291 4.76417 12.7291 4.74996C12.7291 4.73575 12.7465 4.72413 12.7678 4.72413C12.7891 4.72413 12.8066 4.7125 12.8066 4.69829C12.8066 4.68408 12.8256 4.67246 12.8488 4.67246C12.872 4.67246 12.9097 4.6513 12.9327 4.62542C12.9557 4.59953 13.0123 4.55634 13.0585 4.52942C13.1046 4.5025 13.1424 4.47137 13.1424 4.46021C13.1424 4.44908 13.1657 4.43996 13.1941 4.43996C13.2225 4.43996 13.2458 4.42833 13.2458 4.41413C13.2458 4.39992 13.2632 4.38829 13.2845 4.38829C13.3058 4.38829 13.3233 4.37667 13.3233 4.36246C13.3233 4.34825 13.3378 4.3366 13.3555 4.3366C13.3835 4.33657 13.4302 4.30353 13.574 4.18214C13.5912 4.16765 13.6232 4.15579 13.6451 4.15579C13.667 4.15579 13.6849 4.14417 13.6849 4.12996C13.6849 4.11575 13.7024 4.10413 13.7237 4.10413C13.745 4.10413 13.7624 4.0925 13.7624 4.07829C13.7624 4.06408 13.7803 4.05246 13.8021 4.05246C13.8239 4.05246 13.8675 4.0288 13.899 3.99986C13.9738 3.93109 14.1454 3.81996 14.1769 3.81996C14.1905 3.81996 14.2016 3.79671 14.2016 3.76829C14.2016 3.73988 14.2132 3.71663 14.2274 3.71663C14.2441 3.71663 14.2533 3.44106 14.2533 2.94163V2.16663H14.1758C14.1331 2.16663 14.0983 2.17825 14.0983 2.19246ZM14.1112 5.64837C14.0686 5.67283 14.015 5.71323 13.9919 5.73808C13.9689 5.76294 13.9365 5.78329 13.9198 5.78329C13.9031 5.78329 13.8675 5.80365 13.8406 5.8285C13.8137 5.85335 13.7474 5.8968 13.6931 5.92501C13.6389 5.95325 13.5757 5.99683 13.5527 6.02189C13.5297 6.04695 13.492 6.06746 13.4688 6.06746C13.4456 6.06746 13.4266 6.07908 13.4266 6.09329C13.4266 6.1075 13.4091 6.11913 13.3878 6.11913C13.3665 6.11913 13.3491 6.13075 13.3491 6.14496C13.3491 6.15917 13.3346 6.17082 13.3168 6.17082C13.2888 6.17084 13.2421 6.20389 13.0983 6.32528C13.0811 6.33977 13.055 6.35163 13.0402 6.35163C13.0254 6.35163 13.0133 6.36325 13.0133 6.37746C13.0133 6.39167 12.9926 6.40329 12.9673 6.40329C12.942 6.40329 12.9046 6.42654 12.8841 6.45496C12.8636 6.48338 12.8262 6.50663 12.8009 6.50663C12.7756 6.50663 12.7549 6.51574 12.7549 6.52688C12.7549 6.53804 12.7171 6.56917 12.671 6.59609C12.6248 6.62301 12.5682 6.6662 12.5452 6.69208C12.5222 6.71797 12.4845 6.73913 12.4613 6.73913C12.4381 6.73913 12.4191 6.75075 12.4191 6.76496C12.4191 6.77917 12.4016 6.79079 12.3803 6.79079C12.359 6.79079 12.3416 6.80242 12.3416 6.81663C12.3416 6.83083 12.3226 6.84246 12.2994 6.84246C12.2762 6.84246 12.2384 6.86297 12.2154 6.88803C12.1673 6.9405 11.9653 7.07496 11.9345 7.07496C11.9231 7.07496 11.8971 7.09821 11.8766 7.12663C11.8561 7.15504 11.8187 7.17829 11.7934 7.17829C11.7681 7.17829 11.7474 7.18777 11.7474 7.19935C11.7474 7.21092 11.7096 7.2399 11.6635 7.26377C11.5404 7.32732 11.4821 7.36649 11.4348 7.41725C11.4116 7.4421 11.3736 7.46246 11.3504 7.46246C11.3272 7.46246 11.3083 7.47408 11.3083 7.48829C11.3083 7.5025 11.2908 7.51413 11.2695 7.51413C11.2482 7.51413 11.2308 7.52575 11.2308 7.53996C11.2308 7.55417 11.2155 7.56579 11.1969 7.56579C11.1782 7.56579 11.1405 7.58615 11.1129 7.611C11.0466 7.67091 10.8498 7.79829 10.8237 7.79829C10.8123 7.79829 10.7862 7.82154 10.7658 7.84996C10.7453 7.87838 10.7078 7.90163 10.6825 7.90163C10.6573 7.90163 10.6366 7.91325 10.6366 7.92746C10.6366 7.94167 10.6241 7.95329 10.6089 7.95329C10.5937 7.95329 10.565 7.96784 10.5452 7.98558C10.4592 8.06272 10.4304 8.08246 10.404 8.08246C10.3606 8.08246 10.1199 8.33315 10.1199 8.3783C10.1199 8.40031 10.1083 8.41829 10.0941 8.41829C10.0774 8.41829 10.0683 8.69386 10.0683 9.19329C10.0683 9.64576 10.0781 9.96829 10.0919 9.96829C10.105 9.96829 10.1195 9.95858 10.1242 9.9467C10.129 9.93484 10.1968 9.88255 10.2749 9.83055C10.3531 9.77852 10.4311 9.7243 10.4482 9.71004C10.4654 9.6958 10.4915 9.68413 10.5063 9.68413C10.5211 9.68413 10.5333 9.6725 10.5333 9.65829C10.5333 9.64408 10.5507 9.63246 10.572 9.63246C10.5933 9.63246 10.6108 9.62083 10.6108 9.60663C10.6108 9.59242 10.6282 9.58079 10.6495 9.58079C10.6708 9.58079 10.6883 9.57059 10.6883 9.55809C10.6883 9.54561 10.7231 9.52094 10.7658 9.50329C10.8084 9.48565 10.8433 9.46361 10.8433 9.45436C10.8433 9.44512 10.8839 9.41564 10.9337 9.38885C10.9834 9.36206 11.0241 9.33036 11.0241 9.3184C11.0241 9.30642 11.0448 9.29663 11.07 9.29663C11.0953 9.29663 11.1328 9.27338 11.1533 9.24496C11.1737 9.21654 11.1998 9.19329 11.2112 9.19329C11.2373 9.19329 11.4341 9.06591 11.5004 9.006C11.528 8.98115 11.5657 8.96079 11.5844 8.96079C11.603 8.96079 11.6183 8.94917 11.6183 8.93496C11.6183 8.92075 11.6357 8.90913 11.657 8.90913C11.6783 8.90913 11.6958 8.8975 11.6958 8.88329C11.6958 8.86908 11.7147 8.85746 11.7379 8.85746C11.7611 8.85746 11.7989 8.8363 11.8219 8.81042C11.8449 8.78453 11.9014 8.74134 11.9476 8.71442C11.9938 8.6875 12.0316 8.65637 12.0316 8.64521C12.0316 8.63408 12.0523 8.62496 12.0775 8.62496C12.1028 8.62496 12.1403 8.60171 12.1608 8.57329C12.1812 8.54488 12.2187 8.52163 12.244 8.52163C12.2692 8.52163 12.2899 8.51251 12.2899 8.50137C12.2899 8.49021 12.3277 8.45882 12.3739 8.43162C12.4201 8.40439 12.4804 8.3612 12.5079 8.33563C12.5355 8.31005 12.5732 8.28913 12.5919 8.28913C12.6105 8.28913 12.6258 8.2775 12.6258 8.26329C12.6258 8.24908 12.6432 8.23746 12.6645 8.23746C12.6858 8.23746 12.7033 8.22583 12.7033 8.21163C12.7033 8.19742 12.7222 8.18579 12.7454 8.18579C12.7686 8.18579 12.8064 8.16463 12.8294 8.13875C12.8524 8.11286 12.9089 8.06967 12.9551 8.04275C13.0013 8.01584 13.0391 7.98471 13.0391 7.97355C13.0391 7.96241 13.0598 7.95329 13.085 7.95329C13.1103 7.95329 13.1478 7.93004 13.1683 7.90163C13.1887 7.87321 13.2262 7.84996 13.2515 7.84996C13.2767 7.84996 13.2974 7.84017 13.2974 7.82818C13.2974 7.81622 13.3381 7.78452 13.3878 7.75773C13.4376 7.73094 13.4783 7.70147 13.4783 7.69222C13.4783 7.68297 13.5131 7.66094 13.5558 7.64329C13.5984 7.62565 13.6333 7.60098 13.6333 7.5885C13.6333 7.576 13.6507 7.56579 13.672 7.56579C13.6933 7.56579 13.7108 7.55417 13.7108 7.53996C13.7108 7.52575 13.7297 7.51413 13.7529 7.51413C13.7761 7.51413 13.8139 7.49343 13.8369 7.46814C13.8599 7.44285 13.9512 7.37602 14.0399 7.3196C14.1367 7.25804 14.2012 7.19899 14.2014 7.17183C14.2015 7.14698 14.2132 7.12663 14.2274 7.12663C14.2441 7.12663 14.2533 6.85538 14.2533 6.36454C14.2533 5.53899 14.2582 5.56386 14.1112 5.64837ZM11.2566 11.2083C11.2211 11.2361 11.18 11.2591 11.1654 11.2594C11.1508 11.2597 11.1221 11.2832 11.1016 11.3116C11.0811 11.34 11.0437 11.3633 11.0184 11.3633C10.9931 11.3633 10.9724 11.3749 10.9724 11.3891C10.9724 11.4033 10.955 11.415 10.9337 11.415C10.9124 11.415 10.8949 11.4258 10.8949 11.4391C10.8949 11.4523 10.873 11.4701 10.8463 11.4786C10.8034 11.4922 10.7645 11.5196 10.6441 11.6211C10.627 11.6356 10.6008 11.6475 10.586 11.6475C10.5712 11.6475 10.5591 11.6591 10.5591 11.6733C10.5591 11.6875 10.5384 11.6991 10.5131 11.6991C10.4878 11.6991 10.4504 11.7224 10.4299 11.7508C10.4094 11.7792 10.3818 11.8025 10.3685 11.8025C10.3552 11.8025 10.3063 11.8315 10.2597 11.867C10.2131 11.9026 10.1676 11.9316 10.1585 11.9316C10.1495 11.9316 10.1254 11.9482 10.1052 11.9685C10.0748 11.9989 10.0683 12.1469 10.0683 12.8081C10.0683 13.2496 10.0752 13.6108 10.0836 13.6108C10.1096 13.6108 10.2615 13.5216 10.2706 13.501C10.2754 13.4903 10.2957 13.4816 10.3158 13.4816C10.3359 13.4816 10.3524 13.47 10.3524 13.4558C10.3524 13.4416 10.3714 13.43 10.3946 13.43C10.4178 13.43 10.4556 13.4088 10.4786 13.3829C10.5015 13.357 10.5581 13.3138 10.6043 13.2869C10.6505 13.26 10.6883 13.2289 10.6883 13.2177C10.6883 13.2066 10.7089 13.1975 10.7342 13.1975C10.7595 13.1975 10.7969 13.1742 10.8174 13.1458C10.8379 13.1174 10.8753 13.0941 10.9006 13.0941C10.9259 13.0941 10.9466 13.0825 10.9466 13.0683C10.9466 13.0541 10.9587 13.0425 10.9735 13.0425C10.9883 13.0425 11.0145 13.0306 11.0316 13.0161C11.1754 12.8947 11.2222 12.8617 11.2501 12.8617C11.2679 12.8617 11.2824 12.85 11.2824 12.8358C11.2824 12.8216 11.2999 12.81 11.3212 12.81C11.3548 12.81 11.3599 12.7009 11.3599 11.9833C11.3599 11.5286 11.3512 11.1569 11.3405 11.1572C11.3299 11.1575 11.2921 11.1805 11.2566 11.2083ZM4.33325 17.6666H6.11575V17.0983H4.95325V15.3158H4.33325V17.6666ZM7.50215 15.333C7.49267 15.3425 7.48492 15.8714 7.48492 16.5084V17.6666H8.13075V15.3158H7.82507C7.65692 15.3158 7.5116 15.3235 7.50215 15.333ZM9.64632 15.333C9.63683 15.3425 9.62908 15.8714 9.62908 16.5084V17.6666H10.2491V17.0337C10.2491 16.6641 10.259 16.4008 10.2729 16.4008C10.3033 16.4008 10.4558 16.5523 10.4558 16.5824C10.4558 16.5949 10.4848 16.6342 10.5203 16.6697C10.5559 16.7052 10.5849 16.7405 10.5849 16.7482C10.5849 16.764 10.6728 16.8702 10.7593 16.9588C10.7912 16.9916 10.8174 17.0306 10.8174 17.0455C10.8174 17.0603 10.829 17.0725 10.8433 17.0725C10.8575 17.0725 10.8691 17.0899 10.8691 17.1112C10.8691 17.1325 10.8807 17.15 10.8949 17.15C10.9091 17.15 10.9208 17.1621 10.9208 17.177C10.9208 17.1918 10.9469 17.231 10.9789 17.2641C11.0108 17.2972 11.0603 17.3569 11.0887 17.3968C11.1171 17.4367 11.1665 17.4957 11.1985 17.528C11.2304 17.5603 11.2566 17.6048 11.2566 17.6267C11.2566 17.6605 11.3042 17.6666 11.5668 17.6666H11.8771L11.8637 15.3287L11.2049 15.3142V15.9092C11.2049 16.2364 11.1962 16.504 11.1855 16.5039C11.1749 16.5038 11.1371 16.4609 11.1016 16.4085C11.0661 16.3562 11.0108 16.287 10.9789 16.2549C10.9469 16.2227 10.9208 16.1843 10.9208 16.1695C10.9208 16.1546 10.9091 16.1425 10.8949 16.1425C10.8807 16.1425 10.8691 16.1299 10.8691 16.1146C10.8691 16.0993 10.8342 16.0519 10.7916 16.0093C10.749 15.9667 10.7141 15.9216 10.7141 15.9092C10.7141 15.8967 10.685 15.8574 10.6495 15.8219C10.614 15.7864 10.5849 15.7505 10.5849 15.7423C10.5849 15.734 10.5613 15.7015 10.5325 15.6701C10.3701 15.4931 10.3008 15.4056 10.3008 15.3781C10.3008 15.3611 10.2824 15.3401 10.2599 15.3315C10.2043 15.3101 9.66783 15.3115 9.64632 15.333ZM13.3749 17.6666H13.9949V17.3684C13.9949 17.0952 13.9998 17.0648 14.053 17.0064C14.085 16.9714 14.1402 16.9087 14.1755 16.8672C14.2351 16.7973 14.2434 16.7947 14.2853 16.8327C14.3103 16.8553 14.3308 16.8869 14.3308 16.9028C14.3308 16.9188 14.354 16.9486 14.3824 16.9691C14.4108 16.9896 14.4341 17.027 14.4341 17.0523C14.4341 17.0776 14.4432 17.0983 14.4543 17.0983C14.4655 17.0983 14.4966 17.1361 14.5235 17.1823C14.5505 17.2284 14.5937 17.285 14.6195 17.308C14.6454 17.331 14.6666 17.3687 14.6666 17.3919C14.6666 17.4151 14.6782 17.4341 14.6924 17.4341C14.7066 17.4341 14.7183 17.4516 14.7183 17.4729C14.7183 17.4942 14.7285 17.5116 14.741 17.5116C14.7534 17.5116 14.7781 17.5465 14.7958 17.5891L14.8279 17.6666H15.2122C15.4236 17.6666 15.5966 17.6614 15.5966 17.6549C15.5966 17.622 15.5337 17.5116 15.5149 17.5116C15.503 17.5116 15.4933 17.4942 15.4933 17.4729C15.4933 17.4516 15.4816 17.4341 15.4674 17.4341C15.4532 17.4341 15.4416 17.4151 15.4416 17.3919C15.4416 17.3687 15.4204 17.331 15.3945 17.308C15.3687 17.285 15.3255 17.2284 15.2985 17.1823C15.2716 17.1361 15.2405 17.0983 15.2293 17.0983C15.2182 17.0983 15.2091 17.0831 15.2091 17.0644C15.2091 17.0458 15.1858 17.0056 15.1574 16.9751C15.129 16.9446 15.1058 16.9043 15.1058 16.8855C15.1058 16.8667 15.0825 16.8346 15.0541 16.8141C15.0257 16.7936 15.0024 16.7673 15.0024 16.7557C15.0024 16.744 14.9906 16.7204 14.9761 16.7032C14.8746 16.5829 14.8471 16.5439 14.8335 16.5011C14.825 16.4743 14.8073 16.4525 14.794 16.4525C14.7808 16.4525 14.7699 16.435 14.7699 16.4137C14.7699 16.3924 14.7583 16.375 14.7441 16.375C14.702 16.375 14.7146 16.2939 14.7637 16.2488C14.7888 16.2258 14.8397 16.1664 14.877 16.1166C14.9143 16.0669 14.9955 15.972 15.0576 15.9058C15.1196 15.8396 15.2052 15.7427 15.2478 15.6905C15.2905 15.6383 15.3631 15.5563 15.4093 15.5083C15.4555 15.4602 15.4933 15.4088 15.4933 15.3941C15.4933 15.3795 15.5049 15.3675 15.5191 15.3675C15.5333 15.3675 15.5449 15.3558 15.5449 15.3416C15.5449 15.3256 15.4074 15.3158 15.1841 15.3158H14.8233L14.732 15.4071C14.6818 15.4573 14.6408 15.508 14.6408 15.5198C14.6408 15.5316 14.5826 15.6003 14.5116 15.6725C14.4405 15.7447 14.3824 15.8166 14.3824 15.8323C14.3824 15.8613 14.038 16.22 14.0102 16.22C14.0018 16.22 13.9949 16.0165 13.9949 15.7679V15.3158H13.3749V17.6666Z" fill="white"/>
</svg>
