<svg width="2081" height="824" viewBox="0 0 2081 824" fill="none" xmlns="http://www.w3.org/2000/svg">
<path d="M126.711 399.556C116.217 409.649 107.467 421.213 100.461 434.246C73.2607 484.866 71.3007 545.566 96.8907 597.496C147.531 700.256 281.171 728.746 369.211 654.496C400.951 627.726 420.561 594.186 428.531 553.846C431.531 538.666 432.141 526.016 432.321 507.196C432.321 507.109 432.307 507.039 432.281 506.986C432.201 506.846 432.114 506.839 432.021 506.966C431.974 507.026 431.947 507.103 431.941 507.196C427.587 552.843 408.757 590.499 375.451 620.166C342.251 649.736 296.181 664.636 251.851 660.336C177.081 653.086 114.721 596.836 103.761 521.556C102.361 511.923 101.627 505.599 101.561 502.586C100.901 472.246 107.781 440.706 122.891 414.196C123.057 413.896 123.314 413.739 123.661 413.726L126.061 413.606" stroke="#FBD1D7" stroke-width="2"/>
<path d="M126.061 413.606C125.841 417.076 125.111 420.706 124.921 423.926C123.681 445.346 122.421 463.356 121.701 488.026C121.311 501.176 121.131 513.886 124.081 526.426C131.341 557.236 146.801 585.026 167.871 608.776C192.211 636.206 229.961 653.366 264.761 633.076C268.561 630.866 271.071 628.216 271.721 624.026C272.307 620.226 273.147 612.596 274.241 601.136C274.651 596.806 274.781 591.436 274.461 587.906C273.441 576.826 272.357 565.752 271.211 554.686C269.301 536.396 270.461 519.176 271.741 500.976C272.207 494.289 272.787 488.249 273.481 482.856C278.241 445.986 285.101 409.396 292.111 372.896C306.501 297.926 343.651 220.666 413.091 182.016C422.971 176.516 434.371 170.786 445.381 166.246C446.074 165.966 446.757 165.989 447.431 166.316C455.211 170.106 459.421 178.056 461.111 186.076C463.977 199.729 466.447 213.453 468.521 227.246C470.011 237.116 472.321 248.206 477.691 256.796C490.441 277.206 521.491 258.906 533.971 247.866C550.981 232.806 557.611 210.626 561.991 189.136C564.091 178.866 563.871 167.576 563.521 157.126C563.251 149.176 556.751 138.096 552.321 132.566C544.114 122.332 533.561 113.443 520.661 105.896C492.441 89.3825 462.161 78.5658 429.821 73.4458C396.131 68.1058 363.041 70.6058 332.161 85.0258C318.861 91.2258 302.451 100.256 287.911 108.116C278.071 113.436 269.861 117.536 259.331 119.166C255.541 119.746 252.081 115.236 250.171 112.486C225.211 76.6558 199.061 33.2958 158.751 13.0158C147.251 7.22917 134.677 3.2725 121.031 1.14583C119.524 0.9125 118.254 0.959166 117.221 1.28583C117.05 1.33974 116.898 1.44177 116.783 1.57994C116.668 1.7181 116.594 1.88667 116.571 2.06584C115.804 8.10584 115.344 12.8425 115.191 16.2758C112.981 65.9558 115.291 105.176 119.281 157.376C122.671 201.686 125.101 246.056 128.581 290.356C129.741 305.149 130.304 320.893 130.271 337.586C130.271 339.696 130.121 340.836 128.191 342.036C114.364 350.636 103.264 358.433 94.8907 365.426C86.8407 372.146 74.9807 382.826 66.9707 391.826C37.1507 425.326 15.3207 466.906 6.42069 511.116C-11.0293 597.786 14.0707 682.936 75.6607 746.076C158.211 830.726 293.561 847.556 394.481 783.776C470.331 735.836 515.841 656.546 516.921 566.436C516.924 566.209 516.874 565.984 516.775 565.779C516.677 565.575 516.531 565.395 516.351 565.256C512.671 562.476 508.831 559.556 504.751 557.816C495.297 553.776 485.547 553.496 475.501 556.976C473.034 557.822 471.554 559.362 471.061 561.596C458.241 619.306 424.981 667.556 375.501 699.276C327.101 730.326 264.871 740.776 207.001 725.926C150.621 711.456 101.211 674.746 72.4607 623.156C25.7807 539.416 38.7307 437.926 103.831 368.266C110.831 360.786 120.371 353.066 128.571 345.416C128.656 345.336 128.763 345.283 128.879 345.263C128.994 345.243 129.113 345.257 129.22 345.304C129.328 345.351 129.419 345.428 129.483 345.526C129.547 345.624 129.581 345.739 129.581 345.856C129.651 363.816 127.951 381.626 126.711 399.556" stroke="#FF83A8" stroke-width="2"/>
<path d="M126.061 413.606L126.711 399.556" stroke="#FA547F" stroke-width="2"/>
<path d="M448.701 521.846L449.761 581.776C449.761 582.036 449.794 582.039 449.861 581.786C452.621 570.616 454.391 558.866 456.491 547.596C456.512 547.482 456.56 547.375 456.63 547.283C456.7 547.191 456.791 547.117 456.895 547.066C456.999 547.016 457.113 546.99 457.229 546.992C457.344 546.993 457.458 547.022 457.561 547.076C460.827 548.782 463.667 551.032 466.081 553.826C466.348 554.133 466.72 554.331 467.124 554.381C467.528 554.431 467.937 554.329 468.271 554.096C488.161 540.196 511.581 545.046 524.891 564.746C525.417 565.526 525.954 565.972 526.501 566.086C528.671 566.516 533.751 564.166 535.971 563.286C536.25 563.175 536.552 563.132 536.852 563.16C537.151 563.187 537.44 563.284 537.695 563.444C537.95 563.604 538.164 563.821 538.319 564.078C538.475 564.336 538.568 564.626 538.591 564.926C538.637 565.619 538.537 566.506 538.291 567.586C536.017 577.526 533.917 587.466 531.991 597.406C531.99 597.432 531.998 597.458 532.013 597.479C532.028 597.5 532.049 597.516 532.074 597.524C532.099 597.532 532.126 597.531 532.151 597.523C532.175 597.514 532.196 597.498 532.211 597.476L556.181 543.046C556.211 542.976 556.225 542.9 556.222 542.824C556.219 542.747 556.199 542.673 556.163 542.607C556.127 542.54 556.077 542.483 556.016 542.439C555.955 542.396 555.885 542.367 555.811 542.356L545.571 540.656C545.429 540.633 545.292 540.582 545.17 540.506C545.048 540.43 544.942 540.331 544.858 540.213C544.774 540.096 544.715 539.964 544.683 539.823C544.65 539.683 544.646 539.538 544.671 539.396C546.051 531.116 547.181 522.336 549.591 514.506C549.684 514.186 549.601 513.922 549.341 513.716C546.701 511.606 541.391 508.716 542.251 504.836C546.331 486.602 549.864 468.276 552.851 449.856C554.997 436.662 554.544 423.579 551.491 410.606C548.971 399.899 546.374 389.212 543.701 378.546C542.347 373.166 540.374 368.022 537.781 363.116C537.401 362.389 536.864 362.246 536.171 362.686C532.491 365.006 529.321 367.426 526.571 371.116C519.744 380.282 512.897 389.436 506.031 398.576C496.891 410.746 491.331 422.756 487.511 438.266C483.077 456.272 479.421 473.796 476.541 490.836C476.327 492.122 475.914 493.189 475.301 494.036C475.094 494.309 474.824 494.476 474.491 494.536C471.531 495.022 468.767 496.059 466.201 497.646C465.981 497.779 465.847 497.972 465.801 498.226L461.131 521.626C461.055 522.003 460.89 522.357 460.65 522.657C460.409 522.958 460.1 523.196 459.749 523.353C459.397 523.51 459.014 523.58 458.629 523.558C458.245 523.535 457.872 523.422 457.541 523.226C455.061 521.766 452.397 521.022 449.551 520.996C449.439 520.994 449.328 521.016 449.224 521.058C449.12 521.1 449.026 521.163 448.947 521.242C448.868 521.321 448.805 521.415 448.763 521.519C448.72 521.623 448.699 521.734 448.701 521.846Z" stroke="#FF83A8" stroke-width="2"/>
<path d="M126.061 413.606L126.711 399.556C127.951 381.626 129.651 363.816 129.581 345.856C129.581 345.739 129.547 345.624 129.483 345.526C129.419 345.428 129.328 345.351 129.22 345.304C129.113 345.257 128.994 345.243 128.879 345.263C128.763 345.283 128.656 345.336 128.571 345.416C120.371 353.066 110.831 360.786 103.831 368.266C38.7307 437.926 25.7807 539.416 72.4607 623.156C101.211 674.746 150.621 711.456 207.001 725.926C264.871 740.776 327.101 730.326 375.501 699.276C424.981 667.556 458.241 619.306 471.061 561.596C471.554 559.362 473.034 557.822 475.501 556.976C485.547 553.496 495.297 553.776 504.751 557.816C508.831 559.556 512.671 562.476 516.351 565.256C516.531 565.395 516.677 565.575 516.775 565.779C516.874 565.984 516.924 566.209 516.921 566.436C515.841 656.546 470.331 735.836 394.481 783.776C293.561 847.556 158.211 830.726 75.6607 746.076C14.0707 682.936 -11.0293 597.786 6.42069 511.116C15.3207 466.906 37.1507 425.326 66.9707 391.826C74.9807 382.826 86.8407 372.146 94.8907 365.426C103.264 358.433 114.364 350.636 128.191 342.036C130.121 340.836 130.271 339.696 130.271 337.586C130.304 320.893 129.741 305.149 128.581 290.356C125.101 246.056 122.671 201.686 119.281 157.376C115.291 105.176 112.981 65.9558 115.191 16.2758C115.344 12.8425 115.804 8.10584 116.571 2.06584C116.594 1.88667 116.668 1.7181 116.783 1.57994C116.898 1.44177 117.05 1.33974 117.221 1.28583C118.254 0.959166 119.524 0.9125 121.031 1.14583C134.677 3.2725 147.251 7.22917 158.751 13.0158C199.061 33.2958 225.211 76.6558 250.171 112.486C252.081 115.236 255.541 119.746 259.331 119.166C269.861 117.536 278.071 113.436 287.911 108.116C302.451 100.256 318.861 91.2258 332.161 85.0258C363.041 70.6058 396.131 68.1058 429.821 73.4458C462.161 78.5658 492.441 89.3825 520.661 105.896C533.561 113.443 544.114 122.332 552.321 132.566C556.751 138.096 563.251 149.176 563.521 157.126C563.871 167.576 564.091 178.866 561.991 189.136C557.611 210.626 550.981 232.806 533.971 247.866C521.491 258.906 490.441 277.206 477.691 256.796C472.321 248.206 470.011 237.116 468.521 227.246C466.447 213.453 463.977 199.729 461.111 186.076C459.421 178.056 455.211 170.106 447.431 166.316C446.757 165.989 446.074 165.966 445.381 166.246C434.371 170.786 422.971 176.516 413.091 182.016C343.651 220.666 306.501 297.926 292.111 372.896C285.101 409.396 278.241 445.986 273.481 482.856C272.787 488.249 272.207 494.289 271.741 500.976C270.461 519.176 269.301 536.396 271.211 554.686C272.357 565.752 273.441 576.826 274.461 587.906C274.781 591.436 274.651 596.806 274.241 601.136C273.147 612.596 272.307 620.226 271.721 624.026C271.071 628.216 268.561 630.866 264.761 633.076C229.961 653.366 192.211 636.206 167.871 608.776C146.801 585.026 131.341 557.236 124.081 526.426C121.131 513.886 121.311 501.176 121.701 488.026C122.421 463.356 123.681 445.346 124.921 423.926C125.111 420.706 125.841 417.076 126.061 413.606Z" fill="#FE0650"/>
<path d="M449.761 581.776L448.701 521.846C448.699 521.734 448.72 521.623 448.763 521.519C448.805 521.415 448.868 521.321 448.947 521.242C449.026 521.163 449.12 521.1 449.224 521.058C449.328 521.016 449.439 520.994 449.551 520.996C452.397 521.022 455.061 521.766 457.541 523.226C457.872 523.422 458.245 523.535 458.629 523.558C459.014 523.58 459.397 523.51 459.749 523.353C460.1 523.196 460.409 522.958 460.65 522.657C460.89 522.357 461.055 522.003 461.131 521.626L465.801 498.226C465.847 497.972 465.981 497.779 466.201 497.646C468.767 496.059 471.531 495.022 474.491 494.536C474.824 494.476 475.094 494.309 475.301 494.036C475.914 493.189 476.327 492.122 476.541 490.836C479.421 473.796 483.077 456.272 487.511 438.266C491.331 422.756 496.891 410.746 506.031 398.576C512.897 389.436 519.744 380.282 526.571 371.116C529.321 367.426 532.491 365.006 536.171 362.686C536.864 362.246 537.401 362.389 537.781 363.116C540.374 368.022 542.347 373.166 543.701 378.546C546.374 389.212 548.971 399.899 551.491 410.606C554.544 423.579 554.997 436.662 552.851 449.856C549.864 468.276 546.331 486.602 542.251 504.836C541.391 508.716 546.701 511.606 549.341 513.716C549.601 513.922 549.684 514.186 549.591 514.506C547.181 522.336 546.051 531.116 544.671 539.396C544.646 539.538 544.65 539.683 544.683 539.823C544.715 539.964 544.774 540.096 544.858 540.213C544.942 540.331 545.048 540.43 545.17 540.506C545.292 540.582 545.429 540.633 545.571 540.656L555.811 542.356C555.885 542.367 555.955 542.396 556.016 542.439C556.077 542.483 556.127 542.54 556.163 542.607C556.199 542.673 556.219 542.747 556.222 542.824C556.225 542.9 556.211 542.976 556.181 543.046L532.211 597.476C532.196 597.498 532.175 597.514 532.151 597.523C532.126 597.531 532.099 597.532 532.074 597.524C532.049 597.516 532.028 597.5 532.013 597.479C531.998 597.458 531.99 597.432 531.991 597.406C533.917 587.466 536.017 577.526 538.291 567.586C538.537 566.506 538.637 565.619 538.591 564.926C538.568 564.626 538.475 564.336 538.319 564.078C538.164 563.821 537.95 563.604 537.695 563.444C537.44 563.284 537.151 563.187 536.852 563.16C536.552 563.132 536.25 563.175 535.971 563.286C533.751 564.166 528.671 566.516 526.501 566.086C525.954 565.972 525.417 565.526 524.891 564.746C511.581 545.046 488.161 540.196 468.271 554.096C467.937 554.329 467.528 554.431 467.124 554.381C466.72 554.331 466.348 554.133 466.081 553.826C463.667 551.032 460.827 548.782 457.561 547.076C457.458 547.022 457.344 546.993 457.229 546.992C457.113 546.99 456.999 547.016 456.895 547.066C456.791 547.117 456.7 547.191 456.63 547.283C456.56 547.375 456.512 547.482 456.491 547.596C454.391 558.866 452.621 570.616 449.861 581.786C449.794 582.039 449.761 582.036 449.761 581.776Z" fill="#FE0650"/>
<path d="M126.711 399.556L126.061 413.606L123.661 413.726C123.314 413.739 123.057 413.896 122.891 414.196C107.781 440.706 100.901 472.246 101.561 502.586C101.627 505.599 102.361 511.922 103.761 521.556C114.721 596.836 177.081 653.086 251.851 660.336C296.181 664.636 342.251 649.736 375.451 620.166C408.757 590.499 427.587 552.842 431.941 507.196C431.947 507.102 431.974 507.026 432.021 506.966C432.114 506.839 432.201 506.846 432.281 506.986C432.307 507.039 432.321 507.109 432.321 507.196C432.141 526.016 431.531 538.666 428.531 553.846C420.561 594.186 400.951 627.726 369.211 654.496C281.171 728.746 147.531 700.256 96.8907 597.496C71.3007 545.566 73.2607 484.866 100.461 434.246C107.467 421.212 116.217 409.649 126.711 399.556Z" fill="#F6A2AE"/>
<path d="M1773.18 276.84C1773.2 277.25 1773.35 277.646 1773.61 277.966C1773.88 278.286 1774.23 278.512 1774.63 278.609C1775.02 278.706 1775.43 278.669 1775.8 278.503C1776.16 278.337 1776.46 278.052 1776.65 277.691C1785.85 260.843 1798.81 247.8 1815.55 238.562C1816.3 238.149 1817.13 237.891 1817.98 237.803C1818.82 237.715 1819.68 237.799 1820.49 238.051C1856.67 249.068 1869.56 273.091 1870.98 311.199C1872.19 343.873 1871.85 375.866 1869.96 407.177C1869.88 408.173 1870.04 409.171 1870.42 410.096C1870.8 411.02 1871.39 411.845 1872.14 412.509C1872.89 413.173 1873.79 413.656 1874.76 413.923C1875.73 414.19 1876.75 414.233 1877.74 414.049C1899.39 409.96 1918.76 401.12 1935.83 387.527C1937.42 386.24 1938.37 384.574 1938.67 382.53C1939.39 377.115 1939.66 371.663 1939.47 366.173C1938.05 318.866 1954.18 250.942 2005.29 237.823C2058.79 224.136 2081.05 272.296 2065.26 316.14C2052.43 351.691 2026.15 372.156 1986.44 377.532C1985.1 377.71 1983.87 378.339 1982.95 379.311C1982.03 380.284 1981.48 381.541 1981.38 382.87C1978.83 417.911 2002.73 427.509 2031.93 414.787C2046.69 408.37 2059.92 395.819 2073.1 386.562C2073.49 386.295 2073.93 386.116 2074.39 386.038C2074.86 385.959 2075.33 385.983 2075.79 386.107C2076.24 386.232 2076.66 386.454 2077.02 386.758C2077.38 387.062 2077.67 387.441 2077.87 387.868C2087.92 408.768 2059.98 428.986 2044.19 435.801C2004.67 452.838 1963.83 434.267 1943.56 397.068C1943.4 396.802 1943.17 396.585 1942.9 396.441C1942.63 396.298 1942.32 396.235 1942.01 396.258C1941.7 396.282 1941.41 396.392 1941.16 396.575C1940.91 396.759 1940.72 397.008 1940.6 397.296C1920.1 453.52 1841.1 460.562 1833.1 390.367C1829.01 354.474 1825.94 318.506 1823.9 282.462C1823.87 281.849 1823.67 281.256 1823.32 280.752C1822.97 280.249 1822.48 279.855 1821.92 279.617C1821.35 279.379 1820.73 279.306 1820.13 279.408C1819.52 279.509 1818.96 279.781 1818.5 280.19C1779.09 314.947 1765.97 377.305 1765.86 427.509C1765.84 428.073 1765.71 428.628 1765.46 429.133C1765.2 429.637 1764.84 430.078 1764.4 430.422C1763.96 430.766 1763.45 431.004 1762.9 431.119C1762.36 431.235 1761.79 431.223 1761.26 431.087C1736.44 424.783 1729.62 407.632 1730.76 382.643C1734.88 290.148 1732.59 198.637 1723.89 108.11C1723.74 106.659 1723.95 105.194 1724.48 103.837C1725.01 102.48 1725.85 101.269 1726.94 100.303C1728.03 99.3382 1729.33 98.6468 1730.73 98.286C1732.13 97.9252 1733.6 97.9055 1735.02 98.2284C1758.59 103.51 1769.26 118.276 1771.76 142.753C1776.42 189.38 1771.53 232.258 1773.18 276.84ZM1992.39 335.444C1994.03 336.252 1997.31 333.55 2001.52 327.934C2005.74 322.318 2010.53 314.247 2014.86 305.497C2019.18 296.748 2022.68 288.036 2024.58 281.278C2026.49 274.519 2026.64 270.269 2025 269.461C2023.37 268.654 2020.09 271.355 2015.87 276.972C2011.66 282.588 2006.86 290.658 2002.54 299.408C1998.21 308.158 1994.72 316.87 1992.81 323.628C1990.91 330.386 1990.76 334.636 1992.39 335.444Z" fill="#FE0650"/>
<path d="M1422.6 369.808C1419.65 331.076 1421.92 274.568 1449.86 247.08C1451.26 245.68 1452.97 245.093 1454.98 245.32C1497.23 250.318 1471.05 331.587 1463.78 355.156C1458.63 371.739 1459.95 388.379 1467.75 405.076C1468.59 406.742 1469.93 407.726 1471.79 408.029C1501.94 412.629 1529.49 388.549 1552.83 374.295C1553.53 373.876 1554.35 373.706 1555.16 373.811C1555.97 373.916 1556.72 374.291 1557.29 374.875C1557.86 375.459 1558.22 376.217 1558.31 377.029C1558.39 377.841 1558.2 378.658 1557.77 379.349C1538.65 409.752 1511.92 430.046 1477.58 440.23C1474.55 441.144 1471.29 440.902 1468.43 439.549C1443.48 427.812 1429.13 408.048 1425.39 380.258C1425.32 379.686 1425.08 379.147 1424.7 378.716C1424.32 378.286 1423.81 377.984 1423.25 377.853C1422.69 377.722 1422.1 377.769 1421.57 377.986C1421.04 378.203 1420.59 378.58 1420.28 379.065C1407.14 398.791 1390.89 415.696 1371.55 429.781C1311.75 473.283 1272.22 399.681 1271.14 352.032C1269.66 288.463 1272.96 225.178 1281.02 162.176C1283.48 143.17 1288.52 125.678 1296.13 109.7C1296.69 108.546 1297.47 107.517 1298.44 106.675C1299.41 105.834 1300.54 105.197 1301.76 104.804C1302.98 104.411 1304.27 104.27 1305.55 104.39C1306.82 104.509 1308.06 104.886 1309.19 105.498C1335.03 119.525 1336.05 151.783 1336 177.397C1335.71 247.592 1301.3 333.348 1316.91 405.985C1322.42 431.768 1408.69 381.791 1420.39 374.238C1422.02 373.216 1422.76 371.739 1422.6 369.808Z" fill="#FE0650"/>
<path d="M1461.39 150.307C1504.5 145.593 1511.71 215.22 1474.51 198.864C1462.98 193.809 1458.84 165.3 1458.04 154.339C1457.85 151.916 1458.97 150.572 1461.39 150.307Z" fill="#FE0650"/>
<path d="M1624.44 265.027C1624.52 264.435 1624.42 263.831 1624.15 263.296C1623.88 262.761 1623.46 262.319 1622.95 262.03C1622.43 261.74 1621.84 261.617 1621.25 261.675C1620.67 261.734 1620.12 261.972 1619.67 262.358C1599.68 279.054 1580.66 278.184 1562.6 259.745C1560.82 257.928 1559.71 255.571 1559.42 253.043C1559.13 250.515 1559.69 247.958 1561.01 245.774C1564.15 240.701 1569.68 236.801 1577.59 234.075C1615.58 221.127 1677.83 228.453 1672.55 282.348C1668.68 321.705 1628.82 370.206 1606.33 403.94C1605 405.985 1605.55 407.026 1607.97 407.064C1638.13 407.859 1670.44 374.295 1698.22 379.463C1700.37 379.879 1701.07 381.129 1700.32 383.211C1682.54 430.916 1565.61 475.953 1555.61 403.827C1555.47 402.88 1555.53 401.915 1555.78 400.995C1556.04 400.075 1556.48 399.221 1557.09 398.488C1587.19 362.084 1618.59 309.325 1624.44 265.027Z" fill="#FE0650"/>
<path d="M854.002 270.251C872.099 281.875 872.497 297.247 855.194 316.367C854.157 317.503 852.829 318.335 851.355 318.773C849.88 319.211 848.314 319.239 846.824 318.853C845.335 318.468 843.979 317.684 842.902 316.585C841.825 315.486 841.068 314.115 840.712 312.618L835.942 291.946C835.77 291.224 835.439 290.55 834.971 289.974C834.504 289.398 833.913 288.934 833.242 288.618C832.571 288.302 831.837 288.14 831.095 288.146C830.353 288.152 829.622 288.325 828.956 288.652C781.194 312.391 774.89 379.349 779.888 426.089C779.973 426.897 779.844 427.712 779.515 428.45C779.186 429.189 778.668 429.824 778.014 430.292C769.949 436.274 762.528 436.823 755.751 431.938C717.587 404.565 737.407 357.257 733.659 317.9C731.16 292.116 729.608 267.185 729.002 243.105C728.971 241.832 729.285 240.574 729.912 239.465C730.539 238.357 731.455 237.439 732.562 236.81C733.669 236.18 734.927 235.863 736.2 235.891C737.473 235.92 738.715 236.293 739.793 236.971C752.628 245.074 762.718 255.978 770.063 269.684C770.522 270.533 771.16 271.274 771.932 271.854C772.704 272.434 773.592 272.841 774.536 273.046C775.48 273.251 776.457 273.25 777.401 273.042C778.344 272.834 779.231 272.424 780.001 271.842C803.475 254.16 828.142 253.63 854.002 270.251Z" fill="#FE0650"/>
<path d="M1003.54 245.263C1043.97 283.655 1015.52 341.582 976.161 366.628C964.576 373.954 951.059 373.784 937.372 377.929C935.479 378.497 934.4 379.747 934.135 381.678C931.75 401.896 937.789 414.201 952.252 418.593C975.707 425.805 1006.32 403.997 1021.94 387.243C1022.73 386.382 1023.76 385.782 1024.9 385.521C1026.04 385.259 1027.24 385.348 1028.33 385.776C1029.43 386.204 1030.37 386.951 1031.04 387.921C1031.71 388.892 1032.08 390.04 1032.1 391.219C1032.67 461.527 888.02 463.401 891.03 359.131C892.62 301.885 914.939 230.611 986.554 236.403C993.085 236.915 999.048 241.004 1003.54 245.263ZM972.754 266.958L939.246 333.632C939.164 333.775 939.142 333.945 939.184 334.104C939.227 334.264 939.331 334.4 939.474 334.483L939.644 334.54C942.683 336.074 947.34 334.081 952.591 329.001C957.841 323.921 963.256 316.169 967.643 307.45L968.665 305.406C973.046 296.689 976.039 287.724 976.987 280.483C977.935 273.241 976.759 268.315 973.719 266.787L973.606 266.674C973.531 266.635 973.45 266.612 973.367 266.605C973.283 266.598 973.199 266.609 973.12 266.635C973.04 266.662 972.967 266.704 972.904 266.759C972.841 266.815 972.79 266.882 972.754 266.958Z" fill="#FE0650"/>
<path d="M1152.95 388.89C1153.02 388.425 1152.9 387.952 1152.62 387.573C1152.34 387.194 1151.93 386.937 1151.47 386.856C1151 386.775 1150.53 386.877 1150.14 387.14C1149.75 387.403 1149.48 387.806 1149.38 388.266C1142.33 408.711 1126.66 438.867 1101.61 438.526C1068.05 438.015 1052.32 403.883 1055.73 373.556C1060.95 327.63 1075 289.485 1097.87 259.12C1127.74 219.479 1154.03 243.503 1186.29 260.427C1188.07 261.373 1189 262.85 1189.07 264.856C1189.7 292.287 1188.9 391.787 1204.64 410.187C1220.71 428.929 1255.24 407.916 1269.27 393.49C1270.02 392.679 1271.03 392.137 1272.12 391.947C1273.22 391.756 1274.34 391.928 1275.33 392.435C1276.32 392.942 1277.12 393.757 1277.6 394.757C1278.08 395.757 1278.23 396.887 1278.01 397.977C1266.31 462.72 1152.1 461.698 1152.95 388.89ZM1149.26 276.272C1113.65 309.438 1088.21 359.813 1089.97 408.938C1089.99 409.38 1090.12 409.809 1090.36 410.182C1090.59 410.554 1090.93 410.857 1091.33 411.059C1091.73 411.261 1092.17 411.355 1092.62 411.332C1093.07 411.308 1093.51 411.168 1093.89 410.926C1126.66 389.629 1155.91 316.764 1155.79 279.111C1155.76 273.243 1153.58 272.296 1149.26 276.272Z" fill="#FE0650"/>
<path d="M1211.64 633.63H1168.73L1162.36 653.085H1120L1167.09 524.355H1213.64L1260.55 653.085H1218L1211.64 633.63ZM1201.82 603.266L1190.18 567.447L1178.55 603.266H1201.82ZM1266.08 588.538C1266.08 575.811 1268.63 564.477 1273.72 554.537C1278.93 544.598 1286.32 536.901 1295.9 531.446C1305.48 525.87 1316.75 523.082 1329.72 523.082C1340.87 523.082 1350.81 525.204 1359.54 529.446C1368.39 533.567 1375.54 539.446 1380.99 547.083C1386.57 554.719 1390.27 563.629 1392.08 573.811H1349.54C1347.6 569.568 1344.81 566.295 1341.17 563.992C1337.66 561.568 1333.6 560.356 1328.99 560.356C1322.2 560.356 1316.81 562.901 1312.81 567.992C1308.93 573.083 1306.99 579.932 1306.99 588.538C1306.99 597.144 1308.93 603.993 1312.81 609.084C1316.81 614.175 1322.2 616.72 1328.99 616.72C1333.6 616.72 1337.66 615.569 1341.17 613.266C1344.81 610.842 1347.6 607.508 1349.54 603.266H1392.08C1390.27 613.448 1386.57 622.357 1380.99 629.993C1375.54 637.63 1368.39 643.569 1359.54 647.812C1350.81 651.933 1340.87 653.994 1329.72 653.994C1316.75 653.994 1305.48 651.267 1295.9 645.812C1286.32 640.236 1278.93 632.478 1273.72 622.539C1268.63 612.599 1266.08 601.266 1266.08 588.538ZM1489.16 633.63H1446.25L1439.89 653.085H1397.53L1444.62 524.355H1491.16L1538.07 653.085H1495.53L1489.16 633.63ZM1479.35 603.266L1467.71 567.447L1456.07 603.266H1479.35ZM1600.88 524.355C1614.34 524.355 1626.09 527.082 1636.16 532.537C1646.34 537.992 1654.16 545.568 1659.61 555.265C1665.07 564.962 1667.79 575.992 1667.79 588.356C1667.79 600.599 1665.07 611.629 1659.61 621.448C1654.16 631.266 1646.34 639.024 1636.16 644.721C1626.09 650.297 1614.34 653.085 1600.88 653.085H1547.24V524.355H1600.88ZM1597.25 617.084C1606.34 617.084 1613.55 614.599 1618.88 609.629C1624.22 604.66 1626.88 597.569 1626.88 588.356C1626.88 579.144 1624.22 572.053 1618.88 567.083C1613.55 562.113 1606.34 559.628 1597.25 559.628H1587.61V617.084H1597.25ZM1722.73 556.538V572.356H1762.73V602.72H1722.73V620.902H1768.19V653.085H1682.37V524.355H1768.19V556.538H1722.73ZM1938.13 524.355V653.085H1897.95V588.902L1878.13 653.085H1843.58L1823.76 588.902V653.085H1783.4V524.355H1832.86L1861.22 601.629L1888.86 524.355H1938.13ZM2079.98 524.355L2033.8 613.993V653.085H1993.43V613.993L1947.25 524.355H1993.43L2013.98 569.992L2034.53 524.355H2079.98Z" fill="#696969"/>
</svg>
